<svg 
 xmlns="http://www.w3.org/2000/svg"
 xmlns:xlink="http://www.w3.org/1999/xlink"
 width="14px" height="18px">
<path fill-rule="evenodd"  fill="rgb(105, 199, 43)"
 d="M7.000,-0.001 C3.140,-0.001 -0.001,2.989 -0.001,6.662 C-0.001,7.881 0.349,9.073 1.020,10.127 L6.516,17.745 C6.625,17.905 6.806,18.000 7.000,18.000 C7.194,18.000 7.375,17.904 7.483,17.745 L12.993,10.106 C13.651,9.070 14.000,7.879 14.000,6.663 C14.000,2.989 10.860,-0.001 7.000,-0.001 L7.000,-0.001 ZM7.000,10.384 C5.066,10.384 3.500,8.834 3.500,6.923 C3.500,5.011 5.066,3.461 7.000,3.461 C8.933,3.461 10.499,5.011 10.499,6.923 C10.499,8.834 8.933,10.384 7.000,10.384 L7.000,10.384 Z"/>
</svg>