<svg 
 xmlns="http://www.w3.org/2000/svg"
 xmlns:xlink="http://www.w3.org/1999/xlink"
 width="17px" height="17px">
<path fill-rule="evenodd"  fill="rgb(105, 199, 43)"
 d="M16.924,0.840 L3.197,0.840 C2.843,0.840 2.555,1.124 2.550,1.478 C2.550,1.820 2.840,2.115 3.197,2.115 L17.005,2.115 L17.005,15.720 C17.005,16.424 16.380,17.000 15.618,17.000 L2.662,17.000 C1.899,17.000 1.275,16.424 1.275,15.720 L1.275,14.810 L1.744,14.810 C2.167,14.810 2.509,14.463 2.509,14.036 L2.509,12.877 C2.510,12.673 2.430,12.476 2.287,12.332 C2.143,12.186 1.948,12.104 1.744,12.103 L1.275,12.103 L1.275,9.783 L1.744,9.783 C2.167,9.783 2.509,9.437 2.509,9.010 L2.509,7.850 C2.510,7.646 2.430,7.450 2.287,7.305 C2.143,7.159 1.948,7.077 1.744,7.076 L1.275,7.076 L1.275,4.757 L1.744,4.757 C2.167,4.757 2.509,4.411 2.509,3.983 L2.509,2.824 C2.510,2.620 2.430,2.424 2.287,2.279 C2.143,2.134 1.948,2.052 1.744,2.050 L1.275,2.050 L1.275,1.269 C1.275,0.565 1.899,-0.011 2.662,-0.011 L15.618,-0.011 C16.218,-0.011 16.732,0.345 16.924,0.840 L16.924,0.840 ZM0.525,4.367 C0.234,4.367 -0.001,4.108 -0.001,3.788 L-0.001,3.015 C-0.001,2.695 0.234,2.434 0.525,2.434 L1.574,2.434 C1.865,2.434 2.100,2.694 2.100,3.014 L2.100,3.787 C2.100,4.106 1.865,4.366 1.574,4.366 L0.525,4.366 L0.525,4.367 ZM0.525,9.389 C0.234,9.389 -0.001,9.129 -0.001,8.809 L-0.001,8.037 C-0.001,7.717 0.234,7.458 0.525,7.458 L1.574,7.458 C1.865,7.458 2.100,7.717 2.100,8.037 L2.100,8.809 C2.100,9.129 1.865,9.389 1.574,9.389 L0.525,9.389 ZM1.574,14.411 L0.525,14.411 C0.234,14.411 -0.001,14.152 -0.001,13.832 L-0.001,13.059 C-0.001,12.740 0.234,12.480 0.525,12.480 L1.574,12.480 C1.865,12.480 2.100,12.739 2.100,13.059 L2.100,13.832 C2.100,14.152 1.865,14.411 1.574,14.411 L1.574,14.411 ZM12.862,11.154 C12.357,10.833 10.902,10.621 10.902,10.621 C10.902,10.621 9.958,11.581 9.558,11.581 C9.156,11.581 8.213,10.621 8.213,10.621 C8.213,10.621 6.758,10.833 6.253,11.153 C5.748,11.475 5.525,13.172 5.525,13.172 L13.603,13.172 C13.603,13.172 13.456,11.531 12.860,11.153 L12.862,11.154 ZM9.565,9.770 C10.856,9.770 11.903,8.723 11.903,7.431 C11.903,6.140 10.856,5.092 9.565,5.092 C8.274,5.092 7.227,6.140 7.227,7.431 C7.227,8.723 8.274,9.770 9.565,9.770 L9.565,9.770 Z"/>
</svg>