<?xml version="1.0" standalone="no"?><!DOCTYPE svg PUBLIC "-//W3C//DTD SVG 1.1//EN" "http://www.w3.org/Graphics/SVG/1.1/DTD/svg11.dtd"><svg t="1529051487051" class="icon" style="" viewBox="0 0 1024 1024" version="1.1" xmlns="http://www.w3.org/2000/svg" p-id="1150" xmlns:xlink="http://www.w3.org/1999/xlink" width="200" height="200"><defs><style type="text/css"></style></defs><path d="M228.56459591 193.74727745c0 4.1219079 2.06095395 8.24381582 5.96591935 10.41324104 3.9049654 2.06095395 8.24381582 2.06095395 11.82336742 0 3.79649411-2.06095395 5.96591935-5.96591935 5.96591931-10.41324104 0-6.83368941-5.31509177-11.82336741-11.8233674-11.82336739-6.6167469 0.21694254-11.93183867 5.31509177-11.93183868 11.82336739zM902.38806705 400.49350027s-8.5692296 28.74488407-25.49074624 32.86679195c0 0 21.36883833 8.5692296 25.49074624 29.61265417 0 0 3.25413782-30.80583804 27.55170025-31.34819431 0 0-26.35851634-14.20973517-27.55170025-31.13125181zM945.34268628 353.41697313s-3.25413782 10.95559731-9.76241347 12.47419497c0 0 8.02687329 3.25413782 9.76241347 11.28101112 0 0 1.19318387-11.49795361 10.41324107-11.49795362 0-0.43388503-10.08782724-6.07439059-10.41324107-12.25725247zM76.92177355 436.07207374s-3.25413782 10.95559731-9.76241345 12.47419496c0 0 8.02687329 3.25413782 9.76241345 11.28101114 0 0 1.19318387-11.49795361 10.41324101-11.49795363 0-0.10847126-10.08782724-5.74897681-10.41324101-12.25725247zM695.42490174 176.60881827c-9.43699967 0-16.92151667 7.37604575-16.92151664 16.92151669 0 9.43699967 7.37604575 16.92151667 16.92151664 16.92151664 9.43699967 0 16.92151667-7.37604575 16.9215167-16.92151664-0.10847126-9.54547094-7.48451698-16.92151667-16.9215167-16.92151669z" p-id="1151"></path><path d="M695.42490174 205.89605865c-7.15910319 0-12.69113749-5.64050553-12.69113748-12.69113749 0-7.05063196 5.64050553-12.69113749 12.69113748-12.69113749 6.83368941 0 12.69113749 5.64050553 12.6911375 12.69113749 0 7.05063196-5.64050553 12.69113749-12.6911375 12.69113749zM184.74220662 469.15580826c-9.43699967 0-16.92151667 7.37604575-16.92151669 16.92151665s7.37604575 16.92151667 16.92151669 16.92151667c9.43699967 0 16.92151667-7.37604575 16.92151669-16.92151667s-7.48451698-16.92151667-16.92151669-16.92151665z" p-id="1152"></path><path d="M184.74220662 498.55151987c-7.15910319 0-12.69113749-5.64050553-12.69113751-12.69113747 0-7.15910319 5.64050553-12.69113749 12.69113751-12.6911375 6.83368941 0 12.69113749 5.64050553 12.6911375 12.6911375 0 7.05063196-5.64050553 12.69113749-12.6911375 12.69113747zM410.47090003 131.81018765s-6.18286187 21.91119462-19.52482691 25.16533245c0 0 15.9452753 6.18286187 19.52482691 22.77896474 0 0 2.71178151-23.64673485 21.04342458-23.97214858 0.21694254 0-20.50106826-10.95559731-21.04342458-23.97214861zM176.71533334 366.75893818s-6.18286187 21.91119462-19.5248269 25.16533248c0 0 15.9452753 6.18286187 19.5248269 22.77896473 0 0 2.71178151-23.64673485 21.04342457-23.97214857 0.32541378 0-20.392597-10.73865482-21.04342457-23.97214864zM312.0874666 820.81963526h-10.30476974v-121.81322569l10.30476974-1.08471263zM314.47383435 688.7016398l-10.08782724-3.25413779L325.42943168 622.64264206c9.76241345-28.74488407 19.30788439-57.48976813 28.74488409-86.23465221l10.08782722 3.25413781c-9.76241345 28.74488407-19.30788439 57.48976813-28.74488405 86.23465222l-21.04342459 62.80485992z" p-id="1153"></path><path d="M301.78269686 699.00640957c-0.32541378-4.77273545 1.19318387-8.89464336 2.06095393-12.69113751l0.32541382-1.19318385 10.08782723 3.2541378-0.32541378 1.19318387c-1.19318387 2.92872403-1.73554016 5.64050553-1.73554019 8.24381582l-10.41324101 1.19318387z m16.81304541 140.68722504c-3.79649411 0-8.5692296-0.32541378-12.47419497-4.1219079-4.44732171-4.1219079-4.44732171-10.08782724-4.44732169-14.20973511v-0.54235634h10.63018354v0.54235634c0 2.71178151 0 5.31509177 1.19318386 6.18286183l0.32541378 0.32541376c1.19318387 1.19318387 3.9049654 1.19318387 6.18286186 1.1931839h375.52750437c2.06095395 0 3.25413782-0.32541378 4.12190792-0.54235631l0.32541377-0.32541378c0.32541378-0.32541378 0.5423563-1.19318387 1.19318385-3.79649412v-124.74194975c0-1.73554016 0-3.9049654-0.32541379-5.31509177-6.83368941-20.392597-13.88432135-41.21907906-20.39259697-61.61167605-10.41324101-31.13125182-20.392597-62.15403235-31.13125183-92.95987039-0.5423563-1.73554016-2.06095395-3.25413782-4.1219079-3.2541378H372.83137258c-1.73554016 0-4.1219079 0-5.64050554 0.32541377-1.19318387 0.32541378-2.06095395 1.51859766-2.71178151 2.71178153l-10.08782726-3.25413782c1.51859766-4.77273545 5.31509177-8.5692296 10.08782726-9.76241344 2.92872403-0.5423563 5.96591935-0.5423563 8.24381581-0.54235636h271.93745046c6.18286187-0.32541378 12.47419499 4.1219079 14.20973508 10.41324105 10.41324101 31.13125182 20.392597 62.15403235 31.13125184 92.95987039 6.83368941 20.392597 13.88432135 41.21907906 20.39259701 61.61167606v0.32541377c0.5423563 2.92872403 0.5423563 5.96591935 0.54235629 8.5692296v124.09112218c0 5.31509177-1.51859766 8.89464336-4.44732167 11.60642486-3.9049654 3.79649411-8.89464336 4.1219079-11.49795366 4.1219079h-376.39527442z m0 0" p-id="1154"></path><path d="M506.35949447 763.8722234c-11.82336741 0-23.9721486-3.79649411-33.73456209-10.9555973-13.88432135-10.08782724-22.77896473-26.03310254-23.64673483-42.95461921 0-1.51859766-0.32541378-4.44732171-1.19318382-5.31509179l-0.3254138-0.32541376c-0.32541378-0.32541378-1.73554016-0.5423563-3.90496539-0.54235634H327.81579941c-2.92872403 0-5.31509177-2.06095395-5.31509178-5.31509174 0-2.92872403 2.06095395-5.31509177 5.31509178-5.31509178h116.0642489c3.9049654 0 8.02687329 0.5423563 11.28101109 3.90496539 4.44732171 3.9049654 4.77273545 9.76241345 4.77273549 12.6911375 0.5423563 13.66737884 8.02687329 26.90087265 19.3078844 34.92774591 8.5692296 6.18286187 19.52482692 9.43699967 29.93806794 8.8946434 12.47419499-0.32541378 24.62297618-6.18286187 32.54137816-15.7283328 7.15910319-8.02687329 11.28101114-18.65705683 11.49795367-28.74488406 0-2.71178151 0.32541378-8.02687329 4.44732165-11.49795362 3.25413782-3.9049654 8.24381582-4.1219079 11.49795368-4.44732172h116.06424885c2.92872403 0 5.31509177 2.06095395 5.31509178 5.31509178 0 2.92872403-2.06095395 5.31509177-5.31509178 5.31509174H569.48976813c-2.71178151 0-3.9049654 0.32541378-4.12190788 0.54235634l-0.32541378 0.32541376c-0.5423563 0.5423563-1.19318387 3.25413782-1.19318389 4.12190791-0.32541378 13.01655127-5.31509177 25.81616002-14.20973512 35.57857349-10.08782724 11.49795361-24.62297618 18.65705683-40.02589521 19.5248269-1.41012639-0.5423563-2.06095395 0-3.25413778 0zM616.89170905 321.09253748l53.04244643 23.97214858 87.42783613-68.77077924-66.38441154 71.80797456 66.38441154 22.23660841 36.77175734-134.17894942L616.89170905 321.09253748z m73.43504344 43.4969755l-3.57955158 40.56825147 22.77896474-29.93806793-19.19941316-10.63018354z m-217.70182011 210.97660198c-13.66737884 7.37604575-23.64673485 11.49795361-23.64673483 11.49795361l2.06095396 5.96591933c0.32541378 0 10.41324101-4.1219079 24.29756237-11.82336741l-2.7117815-5.64050553z m29.93806795-20.1756545c-6.18286187 4.77273545-12.69113749 9.76241345-19.52482691 13.88432138-1.51859766 1.19318387-1.73554016 2.92872403-1.19318386 4.44732168 1.19318387 1.51859766 2.92872403 1.73554016 4.44732167 1.19318385 7.15910319-4.44732171 13.88432135-9.43699967 20.17565448-14.20973515 0.5423563-0.5423563 1.51859766-1.73554016 1.19318388-2.92872401 0-1.19318387-1.19318387-2.06095395-1.73554018-2.71178151-1.30165514-0.21694254-2.49483899-0.21694254-3.36260908 0.32541376z m34.38538962-32.86679196c-1.51859766-1.19318387-3.25413782-0.5423563-4.44732169 0.54235628-5.31509177 7.37604575-11.28101114 14.53514892-18.33164308 21.36883837-1.19318387 1.19318387-1.19318387 3.25413782 0 4.44732168 1.19318387 1.19318387 3.25413782 1.19318387 4.44732172 0 7.37604575-7.15910319 13.88432135-14.53514892 19.30788442-22.56202223 0.32541378-0.5423563 0.5423563-1.51859766 0.32541375-2.06095396 0.10847126-0.21694254-0.43388503-1.19318387-1.30165512-1.73554014z m14.75209144-68.44536546c0 1.19318387 0.5423563 2.06095395 1.73554016 2.71178148 1.19318387 0.32541378 2.06095395 0.32541378 3.25413783-0.32541376 0.5423563-0.5423563 1.51859766-1.73554016 1.19318386-2.92872404-1.51859766-14.20973517-6.83368941-25.16533248-15.0775052-32.32443571-1.51859766-1.19318387-3.25413782-0.5423563-4.4473217 0.32541382-1.19318387 1.19318387-1.19318387 3.25413782 0.32541379 4.4473217 7.37604575 5.64050553 11.82336741 15.40291903 13.01655126 28.09405651z m-51.84926257-31.67360812c0.32541378 0 0.5423563 0 1.51859765-0.32541377 8.5692296-3.9049654 18.11470053-4.77273545 26.03310256-2.71178152 1.73554016 0.32541378 3.25413782-0.32541378 4.12190789-2.06095398 0.32541378-1.73554016-0.32541378-3.25413782-2.06095395-4.1219079-9.76241345-2.71178151-20.392597-1.73554016-30.26348174 2.7117815-1.51859766 0.5423563-2.06095395 2.06095395-1.73554015 3.90496543-0.21694254 1.08471262 0.97624134 2.60331025 2.38636774 2.60331024zM482.71275964 454.40371678c-0.5423563-2.71178151-0.5423563-5.31509177-0.32541382-8.02687328l2.92872405-9.76241345c1.51859766-2.71178151 2.92872403-4.77273545 4.77273551-6.83368942 1.19318387-1.19318387 1.19318387-3.25413782 0-4.44732171-1.19318387-1.19318387-3.25413782-1.19318387-4.44732172 0-8.24381582 8.5692296-11.49795361 19.52482692-8.89464336 30.80583805 0.32541378 1.73554016 2.06095395 2.71178151 3.79649409 2.06095395 1.51859766-0.21694254 2.71178151-2.27789647 2.16942525-3.79649414z m0.86777007 11.28101114c-1.51859766 1.19318387-1.73554016 2.92872403-0.54235629 4.44732168 3.25413782 4.77273545 8.02687329 9.76241345 13.01655128 14.20973515 1.73554016 1.51859766 4.1219079 3.25413782 5.96591931 4.77273545 1.51859766 1.19318387 3.25413782 0.5423563 4.4473217-0.5423563 1.19318387-1.51859766 0.5423563-3.25413782-0.5423563-4.44732169l-5.64050558-4.44732168c-4.77273545-4.1219079-8.89464336-8.5692296-11.8233674-13.01655127-1.6270689-1.9524827-3.36260905-2.16942518-4.88120672-0.97624134z m50.11372243 36.12092978c1.51859766 0 2.92872403-1.19318387 2.92872404-2.92872402 0-1.51859766-1.19318387-2.92872403-2.71178156-3.25413784-6.18286187-0.5423563-12.47419499-2.92872403-18.6570568-5.96591931-1.51859766-0.5423563-3.25413782 0-4.12190789 1.51859763-0.5423563 1.51859766 0 3.25413782 1.51859765 4.12190792 6.83368941 3.25413782 13.66737884 5.64050553 20.392597 6.83368941l0.65082756-0.32541379c0 0.32541378 0 0 0 0z m23.97214857-7.7014595c-1.19318387 0.32541378-2.71178151 0.5423563-3.90496535 1.19318388 2.06095395-7.37604575 3.9049654-15.40291903 4.44732169-22.77896474 0-0.5423563-0.32541378-1.51859766-0.54235634-2.06095396-0.32541378-0.5423563-1.51859766-1.19318387-2.06095395-1.19318387-1.73554016 0-3.25413782 1.19318387-3.2541378 2.92872403-0.5423563 8.24381582-2.06095395 16.59610288-5.31509175 24.2975624-1.19318387 0-2.71178151 0-3.90496539 0.32541378-1.73554016 0-2.92872403 1.51859766-2.92872404 2.92872404 0 1.73554016 1.51859766 2.92872403 3.25413783 2.92872405h1.19318384c-1.19318387 2.92872403-2.71178151 5.96591935-4.12190789 8.89464334-0.5423563 1.51859766 0 3.25413782 1.51859764 4.12190791 1.51859766 0.5423563 3.25413782 0.32541378 4.1219079-1.19318387 2.06095395-4.1219079 4.1219079-8.24381582 5.64050556-12.47419495 2.71178151-0.32541378 5.31509177-1.19318387 8.02687328-1.73554022 1.73554016-0.32541378 2.71178151-2.06095395 2.06095395-3.79649408-0.43388503-2.06095395-2.49483899-3.25413782-4.23037918-2.38636774z m37.3141137-22.23660843c-7.37604575 6.18286187-14.53514892 11.82336741-21.91119469 15.72833279-1.51859766 0.5423563-2.06095395 2.71178151-1.19318383 4.4473217 0.5423563 1.51859766 2.71178151 2.06095395 4.44732167 1.19318386 7.37604575-4.1219079 15.40291903-9.76241345 23.10437853-16.59610287 0.5423563-0.5423563 1.19318387-1.73554016 1.19318385-2.92872404-0.32541378-1.19318387-1.19318387-2.06095395-2.06095396-2.06095395-1.51859766-0.65082758-2.71178151-0.32541378-3.57955157 0.21694251z m32.54137819-31.67360813c-0.5423563-0.32541378-1.51859766-0.5423563-2.06095395-0.5423563s-1.51859766 0.32541378-2.06095395 1.1931839c-5.31509177 7.15910319-10.95559731 13.88432135-16.59610288 19.52482692-1.19318387 1.19318387-1.19318387 3.25413782 0.32541376 4.44732166 1.19318387 1.19318387 3.25413782 1.19318387 4.44732171 0 5.64050553-5.96591935 11.28101114-12.69113749 16.92151663-20.17565448 0.32541378-0.5423563 0.5423563-1.51859766 0.5423563-2.06095393-0.32541378-0.97624134-0.65082758-1.84401142-1.51859762-2.38636777z m26.35851634-40.89366526c-0.5423563-0.32541378-1.51859766-0.32541378-2.06095395-0.32541379-0.5423563 0.32541378-1.51859766 0.5423563-1.73554021 1.51859768-4.77273545 8.89464336-10.41324101 17.46387297-15.94527528 25.81616-0.5423563 1.19318387-0.5423563 2.06095395-0.32541379 3.25413787 0.32541378 1.19318387 1.51859766 1.73554016 2.71178153 1.73554013s2.06095395-0.32541378 2.92872405-1.51859764c5.64050553-8.5692296 11.28101114-17.46387297 16.59610285-26.68393012 0.32541378-0.5423563 0.32541378-1.51859766 0.32541377-2.06095395-0.97624134-0.86777007-1.84401142-1.19318387-2.49483897-1.73554018z m20.17565448-40.56825147c-0.5423563-0.32541378-1.51859766-0.32541378-2.71178152 0-0.5423563 0.32541378-1.51859766 0.5423563-1.73554017 1.73554017 0 0-4.1219079 9.76241345-11.28101112 23.97214858-0.5423563 1.51859766-0.32541378 3.25413782 1.51859765 4.12190793 1.51859766 0.5423563 3.25413782 0.32541378 4.12190789-1.51859767 7.37604575-14.20973517 11.49795361-23.9721486 11.49795363-24.29756237 0.65082758-1.41012639 0.10847126-3.47108034-1.41012636-4.01343664z m0 0" p-id="1155"></path></svg>